<svg width="77" height="19" viewBox="0 0 77 19" fill="none" xmlns="http://www.w3.org/2000/svg">
<path d="M7 13.8633C7 13.3529 7.17318 12.9245 7.51953 12.5781C7.88411 12.2135 8.32161 12.0312 8.83203 12.0312H13.0156L12.3047 10.0078C12.013 9.26042 11.7214 8.55859 11.4297 7.90234C11.1562 7.22786 10.8372 6.61719 10.4727 6.07031C10.1445 5.52344 9.77083 5.23177 9.35156 5.19531C8.91406 5.23177 8.52214 5.52344 8.17578 6.07031C7.82943 6.61719 7.51042 7.22786 7.21875 7.90234C6.94531 8.55859 6.66276 9.26042 6.37109 10.0078L3.77344 17.1172C3.59115 17.5 3.35417 17.819 3.0625 18.0742C2.78906 18.3112 2.36979 18.4297 1.80469 18.4297C1.27604 18.4297 0.838542 18.2474 0.492188 17.8828C0.164062 17.5182 0.0182292 17.0807 0.0546875 16.5703C0.0729167 16.3333 0.127604 16.1146 0.21875 15.9141L3.22656 8.14844C4.0651 6.10677 4.90365 4.45703 5.74219 3.19922C6.5625 1.95964 7.76562 1.33073 9.35156 1.3125C10.9193 1.33073 12.1133 1.95964 12.9336 3.19922C13.7721 4.42057 14.6107 6.07031 15.4492 8.14844L18.457 15.9141C18.5482 16.1146 18.6029 16.3333 18.6211 16.5703C18.6576 17.0807 18.5026 17.5182 18.1562 17.8828C17.8281 18.2474 17.3997 18.4297 16.8711 18.4297C16.2695 18.4297 15.8229 18.3112 15.5312 18.0742C15.2578 17.819 15.0299 17.5 14.8477 17.1172L14.3281 15.6953H8.83203C8.32161 15.6953 7.89323 15.513 7.54688 15.1484C7.18229 14.8021 7 14.3737 7 13.8633ZM30.0781 5.27734C31.026 5.27734 31.9557 5.38672 32.8672 5.60547C33.7969 5.82422 34.681 6.15234 35.5195 6.58984C36.3581 7.00911 37.0964 7.57422 37.7344 8.28516C38.3906 8.99609 38.7461 9.84375 38.8008 10.8281V11.9766V16.6523C38.6914 17.7461 38.0898 18.3385 36.9961 18.4297C36.4857 18.4297 36.0391 18.2656 35.6562 17.9375C35.2917 17.5911 35.1094 17.1628 35.1094 16.6523V15.4492V11.6758C35.0729 11.1107 34.8542 10.6458 34.4531 10.2812C34.0703 9.89844 33.6328 9.59766 33.1406 9.37891C32.6667 9.16016 32.1654 8.99609 31.6367 8.88672C31.1263 8.77734 30.6068 8.72266 30.0781 8.72266C29.5495 8.72266 29.0208 8.77734 28.4922 8.88672C27.9818 8.99609 27.4805 9.16016 26.9883 9.37891C26.5143 9.59766 26.0768 9.89844 25.6758 10.2812C25.293 10.6458 25.0833 11.1107 25.0469 11.6758V15.4492V16.6523C24.9557 17.7461 24.3633 18.3385 23.2695 18.4297C22.7591 18.4297 22.3125 18.2656 21.9297 17.9375C21.5651 17.5911 21.3828 17.1628 21.3828 16.6523V11.9766V10.8281C21.4375 9.84375 21.7839 8.99609 22.4219 8.28516C23.0599 7.57422 23.7982 7.00911 24.6367 6.58984C25.4753 6.15234 26.3503 5.82422 27.2617 5.60547C28.1914 5.38672 29.1302 5.27734 30.0781 5.27734ZM44.1602 5.41406C44.6523 5.43229 45.0716 5.61458 45.418 5.96094C45.7643 6.28906 45.9466 6.69922 45.9648 7.19141V16.6523C45.8555 17.7461 45.2539 18.3385 44.1602 18.4297C43.6497 18.4297 43.2031 18.2656 42.8203 17.9375C42.4557 17.5911 42.2734 17.1628 42.2734 16.6523V7.19141C42.2917 6.68099 42.4831 6.26172 42.8477 5.93359C43.2122 5.58724 43.6497 5.41406 44.1602 5.41406ZM41.8633 1.85938C41.8633 1.34896 42.082 0.911458 42.5195 0.546875C42.957 0.182292 43.4857 0 44.1055 0C44.7253 0 45.2539 0.182292 45.6914 0.546875C46.1289 0.911458 46.3477 1.34896 46.3477 1.85938C46.3477 2.38802 46.1289 2.83464 45.6914 3.19922C45.2539 3.5638 44.7253 3.74609 44.1055 3.74609C43.4857 3.74609 42.957 3.5638 42.5195 3.19922C42.082 2.83464 41.8633 2.38802 41.8633 1.85938ZM55.0977 5.27734C55.7357 5.27734 56.3555 5.38672 56.957 5.60547C57.5768 5.82422 58.1693 6.14323 58.7344 6.5625C58.8255 6.65365 58.9258 6.74479 59.0352 6.83594C59.1263 6.74479 59.2266 6.65365 59.3359 6.5625C59.901 6.14323 60.4844 5.82422 61.0859 5.60547C61.7057 5.38672 62.3255 5.27734 62.9453 5.27734C63.5833 5.27734 64.2031 5.38672 64.8047 5.60547C65.4245 5.82422 66.0078 6.15234 66.5547 6.58984C67.1198 7.00911 67.612 7.57422 68.0312 8.28516C68.4688 8.99609 68.6875 9.84375 68.6875 10.8281V16.6523C68.5781 17.7461 67.9766 18.3385 66.8828 18.4297C66.3724 18.4297 65.9258 18.2656 65.543 17.9375C65.1784 17.5911 64.9961 17.1628 64.9961 16.6523V11.0469C64.9961 10.6094 64.9141 10.2448 64.75 9.95312C64.5859 9.64323 64.4036 9.40625 64.2031 9.24219C64.0026 9.0599 63.793 8.93229 63.5742 8.85938C63.3555 8.76823 63.1367 8.72266 62.918 8.72266C62.6992 8.72266 62.4805 8.76823 62.2617 8.85938C62.0612 8.93229 61.8607 9.0599 61.6602 9.24219C61.4596 9.40625 61.2773 9.64323 61.1133 9.95312C60.9492 10.2448 60.8581 10.6094 60.8398 11.0469V16.6523C60.7305 17.7461 60.1289 18.3385 59.0352 18.4297C58.5247 18.4297 58.0781 18.2656 57.6953 17.9375C57.3307 17.5911 57.1484 17.1628 57.1484 16.6523V11.0469C57.1484 10.6094 57.0664 10.2448 56.9023 9.95312C56.7383 9.64323 56.556 9.40625 56.3555 9.24219C56.1549 9.0599 55.9453 8.93229 55.7266 8.85938C55.5078 8.76823 55.2891 8.72266 55.0703 8.72266C54.8516 8.72266 54.6328 8.76823 54.4141 8.85938C54.2135 8.93229 54.013 9.0599 53.8125 9.24219C53.612 9.40625 53.4297 9.64323 53.2656 9.95312C53.1016 10.2448 53.0104 10.6094 52.9922 11.0469V16.6523C52.901 17.7461 52.3086 18.3385 51.2148 18.4297C50.7044 18.4297 50.2578 18.2656 49.875 17.9375C49.5104 17.5911 49.3281 17.1628 49.3281 16.6523V10.8281C49.3646 9.84375 49.5924 8.99609 50.0117 8.28516C50.431 7.57422 50.9232 7.00911 51.4883 6.58984C52.0534 6.15234 52.6367 5.82422 53.2383 5.60547C53.8581 5.38672 54.4779 5.27734 55.0977 5.27734ZM73.9648 5.41406C74.457 5.43229 74.8763 5.61458 75.2227 5.96094C75.569 6.28906 75.7513 6.69922 75.7695 7.19141V16.6523C75.6602 17.7461 75.0586 18.3385 73.9648 18.4297C73.4544 18.4297 73.0078 18.2656 72.625 17.9375C72.2604 17.5911 72.0781 17.1628 72.0781 16.6523V7.19141C72.0964 6.68099 72.2878 6.26172 72.6523 5.93359C73.0169 5.58724 73.4544 5.41406 73.9648 5.41406ZM71.668 1.85938C71.668 1.34896 71.8867 0.911458 72.3242 0.546875C72.7617 0.182292 73.2904 0 73.9102 0C74.5299 0 75.0586 0.182292 75.4961 0.546875C75.9336 0.911458 76.1523 1.34896 76.1523 1.85938C76.1523 2.38802 75.9336 2.83464 75.4961 3.19922C75.0586 3.5638 74.5299 3.74609 73.9102 3.74609C73.2904 3.74609 72.7617 3.5638 72.3242 3.19922C71.8867 2.83464 71.668 2.38802 71.668 1.85938Z" fill="white"/>
</svg>
